<?xml version="1.0" standalone="no"?>
<!DOCTYPE svg PUBLIC "-//W3C//DTD SVG 20010904//EN"
 "http://www.w3.org/TR/2001/REC-SVG-20010904/DTD/svg10.dtd">
<svg version="1.0" xmlns="http://www.w3.org/2000/svg"
 width="640.000000pt" height="640.000000pt" viewBox="0 0 640.000000 640.000000"
 preserveAspectRatio="xMidYMid meet">
<metadata>
Created by potrace 1.14, written by Peter Selinger 2001-2017
</metadata>
<g transform="translate(0.000000,640.000000) scale(0.100000,-0.100000)"
fill="#000000" stroke="none">
<path d="M4560 4836 l0 -43 113 -5 c174 -9 280 -61 323 -160 18 -41 19 -100
22 -1378 2 -960 0 -1354 -9 -1403 -17 -101 -83 -179 -178 -208 -20 -6 -89 -13
-153 -16 l-118 -5 0 -44 0 -44 871 0 870 0 -3 43 -3 42 -120 6 c-100 4 -130
10 -176 31 -75 34 -124 80 -146 136 -17 45 -18 118 -18 1417 l0 1370 28 57
c53 108 133 147 320 156 l118 5 -3 41 -3 41 -867 3 -868 2 0 -44z"/>
<path d="M110 4832 l0 -38 83 -11 c160 -22 213 -65 452 -368 83 -105 625 -761
1205 -1459 580 -697 1056 -1273 1058 -1280 6 -26 -94 -52 -236 -62 l-102 -7 0
-38 0 -39 868 2 867 3 3 36 3 35 -128 10 c-144 12 -196 30 -261 89 -83 74 -77
-43 -77 1495 0 1095 3 1372 13 1402 25 70 69 118 140 151 61 29 78 32 190 35
l122 4 0 39 0 39 -870 0 -870 0 0 -40 0 -40 90 0 c157 0 241 -29 313 -109 19
-22 41 -57 48 -78 10 -29 14 -256 16 -983 4 -933 4 -945 -15 -925 -16 16 -631
788 -1615 2028 l-117 147 -590 0 -590 0 0 -38z"/>
<path d="M597 3088 c-3 -800 -7 -1137 -16 -1173 -17 -76 -68 -171 -108 -204
-45 -37 -128 -66 -234 -82 l-79 -12 0 -44 0 -43 550 0 550 0 0 44 0 43 -92 5
c-194 11 -310 91 -358 245 -34 111 -40 293 -40 1231 l0 903 -81 105 c-45 57
-83 104 -85 104 -1 0 -5 -505 -7 -1122z"/>
<path d="M4410 3693 c0 -46 15 -77 25 -51 10 25 1 81 -12 86 -9 2 -13 -8 -13
-35z"/>
<path d="M4170 3655 c0 -13 30 -62 44 -74 23 -20 21 4 -5 45 -18 30 -39 45
-39 29z"/>
<path d="M4640 3628 c-21 -35 -27 -63 -10 -53 16 10 52 85 40 85 -6 0 -19 -15
-30 -32z"/>
<path d="M4329 3507 c-262 -97 -294 -443 -54 -582 122 -71 285 -47 385 56 65
67 85 120 85 224 0 78 -4 97 -27 140 -32 60 -87 115 -148 147 -55 28 -184 36
-241 15z"/>
<path d="M3990 3480 c0 -10 69 -60 82 -60 22 0 3 28 -32 48 -44 25 -50 26 -50
12z"/>
<path d="M4802 3464 c-40 -24 -50 -50 -14 -37 27 10 72 43 72 54 0 14 -12 11
-58 -17z"/>
<path d="M3940 3241 c-22 -15 -4 -25 42 -24 63 3 68 20 7 29 -19 3 -41 0 -49
-5z"/>
<path d="M4820 3230 c0 -5 25 -10 55 -10 30 0 55 5 55 10 0 6 -25 10 -55 10
-30 0 -55 -4 -55 -10z"/>
<path d="M4028 3018 c-21 -12 -38 -28 -38 -35 0 -18 5 -17 50 10 22 12 40 28
40 35 0 17 -9 15 -52 -10z"/>
<path d="M4766 3031 c-7 -11 54 -51 78 -51 27 0 18 15 -23 38 -44 25 -48 26
-55 13z"/>
<path d="M4192 2851 c-25 -43 -26 -51 -12 -51 8 0 50 70 50 85 0 17 -19 0 -38
-34z"/>
<path d="M4620 2880 c0 -19 37 -80 49 -80 14 0 2 34 -24 66 -16 18 -24 24 -25
14z"/>
<path d="M4415 2807 c-8 -32 -3 -72 10 -72 6 0 11 17 13 39 4 46 -14 72 -23
33z"/>
</g>
</svg>
